<svg width="72" height="17" viewBox="0 0 72 17" fill="none" xmlns="http://www.w3.org/2000/svg">
<path d="M3.528 13L0.09 3.82H1.674L4.446 11.326L7.2 3.82H8.748L5.31 13H3.528ZM10.6058 2.272C10.0658 2.272 9.6518 1.876 9.6518 1.318C9.6518 0.76 10.0658 0.364 10.6058 0.364C11.1458 0.364 11.5598 0.76 11.5598 1.318C11.5598 1.876 11.1458 2.272 10.6058 2.272ZM9.8498 13V3.82H11.3258V13H9.8498ZM12.9698 9.976H14.4818C14.5358 11.056 15.4898 11.848 17.0198 11.848C18.3158 11.848 19.2338 11.29 19.2338 10.444C19.2338 9.292 18.2258 9.202 16.8578 9.04C14.8058 8.788 13.1678 8.374 13.1678 6.466C13.1678 4.792 14.6978 3.694 16.7678 3.712C18.8558 3.73 20.3678 4.702 20.5118 6.61H18.9998C18.8918 5.674 18.0278 4.972 16.7678 4.972C15.4898 4.972 14.6258 5.512 14.6258 6.358C14.6258 7.366 15.5978 7.492 16.9298 7.654C19.0178 7.906 20.6918 8.302 20.6918 10.336C20.6918 12.046 19.0538 13.108 17.0198 13.108C14.6438 13.108 13.0058 11.992 12.9698 9.976ZM23.0863 2.272C22.5463 2.272 22.1323 1.876 22.1323 1.318C22.1323 0.76 22.5463 0.364 23.0863 0.364C23.6263 0.364 24.0403 0.76 24.0403 1.318C24.0403 1.876 23.6263 2.272 23.0863 2.272ZM22.3303 13V3.82H23.8063V13H22.3303ZM26.5123 10.606V5.17H24.8563V3.82H26.5123V1.246H27.9883V3.82H30.3643V5.17H27.9883V10.588C27.9883 11.362 28.2583 11.65 29.0503 11.65H30.5083V13H28.9063C27.1423 13 26.5123 12.226 26.5123 10.606ZM40.7462 3.82H41.1602V5.26H40.4222C38.4962 5.26 37.9742 6.862 37.9742 8.32V13H36.4982V3.82H37.7762L37.9742 5.206C38.4062 4.504 39.1082 3.82 40.7462 3.82ZM46.1423 13.108C43.3883 13.108 41.5883 11.218 41.5883 8.41C41.5883 5.62 43.3523 3.712 45.9443 3.712C48.5363 3.712 50.2283 5.35 50.3003 8.068C50.3003 8.266 50.2823 8.482 50.2643 8.698H43.1363V8.824C43.1903 10.57 44.2883 11.794 46.0343 11.794C47.3303 11.794 48.3383 11.11 48.6443 9.922H50.1383C49.7783 11.758 48.2663 13.108 46.1423 13.108ZM43.2263 7.474H48.7163C48.5723 5.89 47.4923 5.008 45.9623 5.008C44.6123 5.008 43.3703 5.98 43.2263 7.474ZM56.6106 3.712C59.1486 3.712 61.0206 5.422 61.0206 8.41C61.0206 11.218 59.1486 13.108 56.6106 13.108C55.0626 13.108 54.0186 12.478 53.4606 11.596V16.6H51.9846V3.82H53.2626L53.4606 5.296C54.0726 4.45 55.0626 3.712 56.6106 3.712ZM56.4666 11.794C58.2846 11.794 59.5086 10.408 59.5086 8.41C59.5086 6.412 58.2846 5.026 56.4666 5.026C54.6666 5.026 53.4426 6.412 53.4426 8.374C53.4426 10.39 54.6666 11.794 56.4666 11.794ZM66.9372 13.108C64.2552 13.108 62.3832 11.2 62.3832 8.41C62.3832 5.62 64.2552 3.712 66.9372 3.712C69.6192 3.712 71.4912 5.62 71.4912 8.41C71.4912 11.2 69.6192 13.108 66.9372 13.108ZM66.9372 11.794C68.7552 11.794 69.9792 10.372 69.9792 8.41C69.9792 6.448 68.7552 5.026 66.9372 5.026C65.1192 5.026 63.8952 6.448 63.8952 8.41C63.8952 10.372 65.1192 11.794 66.9372 11.794Z" fill="black"/>
</svg>
